<svg xmlns="http://www.w3.org/2000/svg" viewBox="0 0 200 200" width="40" height="40">
                                <style>
                                  [data-color="1"] { fill: #C69D23; }
                                </style>
                                <g>
                                  <path d="M178.8 158.6s0-.1 0 0l-59.3-54s-.1-.1-.1-.2l-9.8-9.8 6-6c1 .5 2.1.7 3.2.7 2 0 3.9-.8 5.4-2.3 3-3 3-7.9 0-10.9L98.1 50c-1.4-1.4-3.4-2.2-5.4-2.2s-4 .8-5.4 2.2c-2.7 2.7-3 6.9-.8 9.9L59.9 86.4c-3-2.1-7.2-1.9-9.9.8-1.4 1.4-2.2 3.4-2.2 5.4 0 2.1.8 4 2.2 5.4l26.2 26.2c1.4 1.4 3.4 2.2 5.4 2.2 2.1 0 4-.8 5.4-2.2 2.3-2.3 2.9-5.8 1.5-8.7l6-6 9.4 9.4.2.2 54.3 59.5.1.1c2.8 2.8 6.5 4.2 10.1 4.2 3.7 0 7.3-1.4 10.1-4.2 5.7-5.5 5.7-14.5.1-20.1zm-93.4-46.9L63.5 89.9l26.3-26.3 21.9 21.9-26.3 26.2zm5.4-58.1c.5-.5 1.2-.8 1.9-.8s1.4.3 1.9.8l26.2 26.2c1 1 1 2.7 0 3.8-1 1-2.7 1-3.8 0L90.8 57.4c-1.1-1.1-1.1-2.8 0-3.8zm-7.3 67.1c-1 1-2.8 1-3.8 0L53.6 94.5c-.5-.5-.8-1.2-.8-1.9a2.732 2.732 0 0 1 2.7-2.7c.7 0 1.4.3 1.9.8L83.5 117c1.1 1 1.1 2.7 0 3.7zm22.6-22.5l8 8-7.9 7.9-8-8 7.9-7.9zm69.2 77.1c-3.6 3.6-9.5 3.6-13.1 0l-52.5-57.5 8.1-8.1 57.6 52.5c3.5 3.6 3.5 9.5-.1 13.1z" data-color="1"></path>
                                  <path d="M134.7 116.2c1.2.7 2.7.2 3.4-1 4.6-8.4 7-17.9 7-27.4 0-31.6-25.7-57.3-57.3-57.3-31.6 0-57.3 25.7-57.3 57.3s25.7 57.3 57.3 57.3c8.8 0 17.3-2 25.3-5.9 1.2-.6 1.8-2.1 1.1-3.4-.6-1.2-2.1-1.8-3.4-1.1-7.2 3.6-15 5.4-23 5.4-28.8 0-52.3-23.5-52.3-52.3S59 35.5 87.8 35.5c28.8 0 52.3 23.5 52.3 52.3 0 8.7-2.2 17.4-6.4 25-.6 1.3-.2 2.8 1 3.4z" data-color="1"></path>
                                  <path d="M120 145.2c-9.8 5.5-20.9 8.4-32.2 8.4-36.3 0-65.8-29.5-65.8-65.8 0-17.6 6.8-34.1 19.3-46.5S70.2 22 87.8 22c36.3 0 65.8 29.5 65.8 65.8 0 12.1-3.3 23.9-9.6 34.2-.7 1.2-.3 2.7.8 3.5 1.2.7 2.7.4 3.5-.8 6.8-11.1 10.3-23.8 10.3-36.8 0-39-31.8-70.8-70.8-70.8-18.9 0-36.7 7.4-50.1 20.7C24.4 51.1 17 68.9 17 87.8c0 39 31.8 70.8 70.8 70.8 12.2 0 24.2-3.1 34.7-9.1.2-.1.4-.3.6-.4 1-1 1-2.5.1-3.5-.9-.9-2.2-1-3.2-.4z" data-color="1"></path>
                                </g>
                              </svg>