<?xml version="1.0" encoding="UTF-8"?>
<svg xmlns="http://www.w3.org/2000/svg" 
     viewBox="0 0 64 64"
     width="64" height="64">

  <path
    fill="#C69D23"
    d="M48.6,40.2c-2.6-2.2-5.3-3.6-7.9-1.4l-2.5,2c-1.2,1-3.5,7.1-15.9-5.3
       c-12.4-12.4-6.3-14.7-5.3-15.9l2-2.5c2.2-2.6,0.8-5.3-1.4-7.9c-2.2-2.6-4.4-4.3-7-2.1l-2.1,2.1
       c-2.8,2.8-4.6,5.8-4.5,9.3c0.2,6.6,4.8,15.5,14.5,25.2c9.7,9.7,18.6,14.3,25.2,14.5
       c3.5,0.1,6.6-1.7,9.3-4.5l2.1-2.1C52.9,44.6,50.8,42.4,48.6,40.2z"/>
</svg>
